<svg width="160" height="160" viewBox="0 0 160 160" fill="none" xmlns="http://www.w3.org/2000/svg">
<g clip-path="url(#clip0_537_7)">
<path d="M143.915 147.318C143.489 154.295 137.61 159.981 130.49 159.976C116.54 159.965 73.5681 159.933 48.0086 159.915C40.656 159.913 33.7912 156.475 29.5901 150.453C25.3983 144.445 24.4959 136.796 26.8514 129.823L26.859 129.8L56.5806 39.9708C61.1748 26.3897 74.1397 16.9142 88.3989 16.9702C105.324 17.0203 129.619 17.0965 139.516 17.1276C146.812 17.1506 152.434 23.1698 151.991 30.4427L143.915 147.318Z" fill="#8A31EF"/>
<path d="M141.83 145.197C141.405 152.173 135.525 157.86 128.406 157.854C114.455 157.844 71.4835 157.811 45.9241 157.794C38.5715 157.792 31.7067 154.354 27.5055 148.332C23.3137 142.324 22.4113 134.674 24.7669 127.701L24.7745 127.679L54.4961 37.8495C59.0903 24.2684 72.0551 14.7929 86.3144 14.849C103.239 14.899 127.535 14.9752 137.431 15.0064C144.728 15.0294 150.35 21.0486 149.906 28.3215L141.83 145.197Z" fill="#8A31EF"/>
<path d="M139.746 143.076C139.32 150.052 133.441 155.739 126.321 155.733C112.37 155.723 69.399 155.69 43.8395 155.672C36.4869 155.67 29.6222 152.233 25.421 146.211C21.2292 140.203 20.3268 132.553 22.6823 125.58L22.6899 125.558L52.4115 35.7283C57.0058 22.1472 69.9706 12.6717 84.2298 12.7277C101.155 12.7778 125.45 12.854 135.347 12.8852C142.643 12.9082 148.265 18.9273 147.822 26.2002L139.746 143.076Z" fill="#8A31EF"/>
<path d="M137.661 140.954C137.236 147.931 131.356 153.617 124.237 153.612C110.286 153.601 67.3145 153.569 41.755 153.551C34.4024 153.549 27.5376 150.112 23.3364 144.09C19.1447 138.081 18.2422 130.432 20.5978 123.459L20.6054 123.436L50.327 33.607C54.9212 20.0259 67.8861 10.5504 82.1453 10.6065C99.0702 10.6565 123.366 10.7327 133.262 10.7639C140.559 10.7869 146.181 16.8061 145.737 24.079L137.661 140.954Z" fill="#8A31EF"/>
<path d="M135.576 138.833C135.151 145.81 129.272 151.496 122.152 151.491C108.201 151.48 65.2299 151.448 39.6705 151.43C32.3178 151.428 25.4531 147.99 21.2519 141.969C17.0601 135.96 16.1577 128.311 18.5132 121.338L18.5208 121.315L48.2425 31.4858C52.8367 17.9047 65.8015 8.42919 80.0607 8.48522C96.9857 8.5353 121.281 8.61149 131.178 8.64267C138.474 8.66566 144.096 14.6848 143.653 21.9577L135.576 138.833Z" fill="#8A31EF"/>
<path d="M133.492 136.712C133.067 143.688 127.187 149.375 120.068 149.369C106.117 149.359 63.1454 149.326 37.5859 149.309C30.2333 149.307 23.3685 145.869 19.1674 139.847C14.9756 133.839 14.0732 126.189 16.4287 119.216L16.4363 119.194L46.1579 29.3645C50.7521 15.7834 63.717 6.30795 77.9762 6.36398C94.9012 6.41406 119.197 6.49025 129.093 6.52143C136.39 6.54442 142.012 12.5636 141.568 19.8365L133.492 136.712Z" fill="#8A31EF"/>
<path d="M131.407 134.591C130.982 141.567 125.103 147.254 117.983 147.248C104.032 147.238 61.0608 147.205 35.5014 147.187C28.1488 147.185 21.284 143.748 17.0828 137.726C12.891 131.718 11.9886 124.068 14.3442 117.095L14.3518 117.073L44.0734 27.2433C48.6676 13.6622 61.6324 4.18671 75.8917 4.24273C92.8166 4.29282 117.112 4.36901 127.009 4.40019C134.305 4.42318 139.927 10.4424 139.484 17.7153L131.407 134.591Z" fill="#8A31EF"/>
<path d="M129.323 132.469C128.897 139.446 123.018 145.132 115.898 145.127C101.948 145.116 58.9763 145.084 33.4168 145.066C26.0642 145.064 19.1995 141.627 14.9983 135.605C10.8065 129.596 9.90408 121.947 12.2596 114.974L12.2672 114.951L41.9888 25.1221C46.5831 11.5409 59.5479 2.06546 73.8071 2.12149C90.7321 2.17157 115.028 2.24776 124.924 2.27894C132.221 2.30193 137.843 8.32111 137.399 15.594L129.323 132.469Z" fill="#8A31EF"/>
<path d="M127.238 130.348C126.813 137.325 120.934 143.011 113.814 143.006C99.8632 142.995 56.8918 142.963 31.3323 142.945C23.9797 142.943 17.1149 139.505 12.9137 133.484C8.72196 127.475 7.81954 119.826 10.1751 112.853L10.1827 112.83L39.9043 23.0008C44.4985 9.41971 57.4634 -0.0557792 71.7226 0.00024713C88.6475 0.0503279 112.943 0.126519 122.839 0.1577C130.136 0.18069 135.758 6.19987 135.315 13.4728L127.238 130.348Z" fill="#8A31EF"/>
<path d="M127.238 130.348C126.813 137.325 120.934 143.011 113.814 143.006C99.8632 142.995 56.8918 142.963 31.3323 142.945C23.9797 142.943 17.1149 139.505 12.9137 133.484C8.72196 127.475 7.81954 119.826 10.1751 112.853L10.1827 112.83L39.9043 23.0008C44.4985 9.41971 57.4634 -0.0557792 71.7226 0.00024713C88.6475 0.0503279 112.943 0.126519 122.839 0.1577C130.136 0.18069 135.758 6.19987 135.315 13.4728L127.238 130.348Z" fill="#8A31EF"/>
<path fill-rule="evenodd" clip-rule="evenodd" d="M47.9408 25.5982C51.365 15.4675 61.0567 8.44226 71.5477 8.4851C88.472 8.53517 112.77 8.61137 122.668 8.64256C125.136 8.65033 126.996 10.6391 126.846 13.1039L126.233 23.1557C126.08 25.6573 123.913 27.6971 121.408 27.6971H49.4065C48.3083 27.6971 47.5818 26.6571 47.9408 25.5982Z" fill="#FBF5FF"/>
<path fill-rule="evenodd" clip-rule="evenodd" d="M18.2147 115.441C18.2702 115.278 18.4254 115.163 18.5941 115.163L115.2 115.469C117.668 115.477 119.532 117.466 119.382 119.931L118.769 129.979C118.617 132.482 116.478 134.523 113.971 134.521C100.021 134.51 57.0491 134.478 31.4893 134.46C26.7879 134.46 22.506 132.275 19.9061 128.548C17.3062 124.822 16.6809 119.981 18.2147 115.441Z" fill="#FBF5FF"/>
<path d="M120.877 35.9262H107.309C104.819 35.9262 102.66 37.9415 102.486 40.4276L98.1098 103.062C97.9361 105.548 99.8137 107.563 102.304 107.563H115.871C118.361 107.563 120.52 105.548 120.694 103.062L125.07 40.4276C125.244 37.9415 123.367 35.9262 120.877 35.9262Z" fill="#FBF5FF"/>
<path d="M87.2065 35.9262H73.6387C71.1489 35.9262 68.9896 37.9415 68.8159 40.4276L64.4396 103.062C64.2659 105.548 66.1435 107.563 68.6334 107.563H82.2011C84.691 107.563 86.8502 105.548 87.0239 103.062L91.4003 40.4276C91.574 37.9415 89.6963 35.9262 87.2065 35.9262Z" fill="#FBF5FF"/>
<path fill-rule="evenodd" clip-rule="evenodd" d="M26.3111 107.558C23.3469 107.558 21.3855 104.751 22.3525 101.892L43.5374 39.2571C44.203 37.2891 46.0849 35.9207 48.1254 35.9208L53.5283 35.9211C56.0177 35.9212 57.8951 37.936 57.7219 40.4217L55.4771 72.6315C55.4497 73.0252 55.3706 73.4171 55.242 73.7974L44.9514 104.222C44.2858 106.19 42.4041 107.559 40.3635 107.559L26.3111 107.558Z" fill="#FBF5FF"/>
</g>
<defs>
<clipPath id="clip0_537_7">
<rect width="160" height="160" fill="white"/>
</clipPath>
</defs>
</svg>
