<svg width="230" height="30" viewBox="0 0 230 30" fill="none" xmlns="http://www.w3.org/2000/svg">
<path d="M23.7488 25.7807C23.6744 27.0015 22.6455 27.9967 21.3996 27.9957C18.9582 27.9939 11.4382 27.9882 6.96528 27.9851C5.67857 27.9848 4.47724 27.3832 3.74203 26.3294C3.00847 25.2779 2.85055 23.9392 3.26277 22.7189L3.26409 22.715L8.46538 6.99488C9.26937 4.61819 11.5382 2.95998 14.0336 2.96978C16.9954 2.97855 21.2471 2.99188 22.979 2.99734C24.2559 3.00136 25.2398 4.05472 25.1622 5.32747L23.7488 25.7807Z" fill="#8A31EF"/>
<path d="M23.384 25.4094C23.3096 26.6303 22.2807 27.6255 21.0348 27.6245C18.5934 27.6227 11.0734 27.617 6.60048 27.6139C5.31378 27.6135 4.11244 27.012 3.37723 25.9581C2.64367 24.9067 2.48575 23.568 2.89797 22.3477L2.8993 22.3438L8.10059 6.62367C8.90457 4.24697 11.1734 2.58876 13.6688 2.59857C16.6307 2.60733 20.8824 2.62066 22.6142 2.62612C23.8911 2.63014 24.875 3.6835 24.7974 4.95626L23.384 25.4094Z" fill="#8A31EF"/>
<path d="M23.0192 25.0382C22.9448 26.2591 21.9159 27.2542 20.67 27.2533C18.2286 27.2514 10.7086 27.2458 6.23569 27.2426C4.94898 27.2423 3.74765 26.6408 3.01244 25.5869C2.27888 24.5354 2.12096 23.1968 2.53318 21.9765L2.5345 21.9726L7.73579 6.25245C8.53978 3.87575 10.8086 2.21754 13.304 2.22735C16.2659 2.23611 20.5176 2.24945 22.2494 2.2549C23.5263 2.25893 24.5102 3.31228 24.4326 4.58504L23.0192 25.0382Z" fill="#8A31EF"/>
<path d="M22.6544 24.667C22.58 25.8879 21.5511 26.883 20.3052 26.8821C17.8638 26.8802 10.3438 26.8745 5.8709 26.8714C4.58419 26.8711 3.38285 26.2695 2.64765 25.2157C1.91408 24.1642 1.75616 22.8256 2.16838 21.6053L2.16971 21.6014L7.371 5.88123C8.17498 3.50454 10.4438 1.84633 12.9392 1.85613C15.9011 1.8649 20.1528 1.87823 21.8847 1.88369C23.1615 1.88771 24.1454 2.94107 24.0678 4.21382L22.6544 24.667Z" fill="#8A31EF"/>
<path d="M22.2897 24.2958C22.2152 25.5167 21.1863 26.5118 19.9404 26.5109C17.499 26.509 9.97901 26.5033 5.5061 26.5002C4.21939 26.4999 3.01806 25.8983 2.28285 24.8445C1.54929 23.793 1.39137 22.4544 1.80359 21.2341L1.80492 21.2301L7.0062 5.51001C7.81019 3.13332 10.079 1.47511 12.5744 1.48491C15.5363 1.49368 19.788 1.50701 21.5199 1.51247C22.7967 1.51649 23.7806 2.56985 23.703 3.8426L22.2897 24.2958Z" fill="#8A31EF"/>
<path d="M21.9249 23.9246C21.8504 25.1455 20.8215 26.1406 19.5756 26.1396C17.1342 26.1378 9.61421 26.1321 5.14131 26.129C3.8546 26.1287 2.65326 25.5271 1.91806 24.4733C1.1845 23.4218 1.02657 22.0832 1.43879 20.8629L1.44012 20.8589L6.64141 5.1388C7.44539 2.7621 9.71424 1.10389 12.2096 1.1137C15.1715 1.12246 19.4232 1.13579 21.1551 1.14125C22.432 1.14527 23.4158 2.19863 23.3382 3.47139L21.9249 23.9246Z" fill="#8A31EF"/>
<path d="M21.5601 23.5533C21.4856 24.7742 20.4567 25.7694 19.2108 25.7684C16.7694 25.7666 9.24942 25.7609 4.77651 25.7578C3.4898 25.7575 2.28847 25.1559 1.55326 24.1021C0.819701 23.0506 0.661779 21.7119 1.074 20.4916L1.07533 20.4877L6.27661 4.76758C7.0806 2.39088 9.34945 0.732674 11.8448 0.742479C14.8067 0.751243 19.0584 0.764576 20.7903 0.770033C22.0672 0.774056 23.051 1.82741 22.9734 3.10017L21.5601 23.5533Z" fill="#8A31EF"/>
<path d="M21.1953 23.1821C21.1208 24.403 20.0919 25.3982 18.846 25.3972C16.4046 25.3954 8.88462 25.3897 4.41172 25.3866C3.12501 25.3862 1.92367 24.7847 1.18847 23.7308C0.454907 22.6794 0.296984 21.3407 0.709204 20.1204L0.710532 20.1165L5.91182 4.39636C6.7158 2.01967 8.98465 0.361456 11.48 0.371261C14.4419 0.380025 18.6936 0.393358 20.4255 0.398815C21.7024 0.402838 22.6862 1.45619 22.6086 2.72895L21.1953 23.1821Z" fill="#8A31EF"/>
<path d="M20.8305 22.8109C20.756 24.0318 19.7271 25.0269 18.4812 25.026C16.0398 25.0241 8.51983 25.0184 4.04692 25.0153C2.76021 25.015 1.55888 24.4135 0.823672 23.3596C0.0901119 22.3081 -0.0678104 20.9695 0.344409 19.7492L0.345737 19.7453L5.54702 4.02514C6.35101 1.64845 8.61986 -0.00976136 11.1152 4.32478e-05C14.0771 0.00880739 18.3288 0.0221409 20.0607 0.0275976C21.3376 0.0316207 22.3214 1.08498 22.2438 2.35773L20.8305 22.8109Z" fill="#8A31EF"/>
<path d="M20.8305 22.8109C20.756 24.0318 19.7271 25.0269 18.4812 25.026C16.0398 25.0241 8.51983 25.0184 4.04692 25.0153C2.76021 25.015 1.55888 24.4135 0.823672 23.3596C0.0901119 22.3081 -0.0678104 20.9695 0.344409 19.7492L0.345737 19.7453L5.54702 4.02514C6.35101 1.64845 8.61986 -0.00976136 11.1152 4.32478e-05C14.0771 0.00880739 18.3288 0.0221409 20.0607 0.0275976C21.3376 0.0316207 22.3214 1.08498 22.2438 2.35773L20.8305 22.8109Z" fill="#8A31EF"/>
<path fill-rule="evenodd" clip-rule="evenodd" d="M6.95333 4.47969C7.55256 2.70683 9.24861 1.4774 11.0845 1.4849C14.0463 1.49366 18.2985 1.507 20.0305 1.51245C20.4624 1.51381 20.788 1.86185 20.7617 2.29318L20.6545 4.05225C20.6278 4.49003 20.2485 4.847 19.81 4.847H7.20981C7.01763 4.847 6.89049 4.665 6.95333 4.47969Z" fill="#FBF5FF"/>
<path fill-rule="evenodd" clip-rule="evenodd" d="M1.75126 20.2021C1.76096 20.1737 1.78813 20.1535 1.81765 20.1536L18.7237 20.2072C19.1556 20.2085 19.4818 20.5566 19.4556 20.9879L19.3483 22.7464C19.3216 23.1844 18.9474 23.5415 18.5087 23.5411C16.0673 23.5393 8.54727 23.5336 4.07431 23.5305C3.25156 23.5305 2.50224 23.1482 2.04725 22.496C1.59226 21.8438 1.48284 20.9967 1.75126 20.2021Z" fill="#FBF5FF"/>
<path d="M19.7171 6.28709H17.3427C16.907 6.28709 16.5292 6.63977 16.4988 7.07483L15.7329 18.0358C15.7025 18.4709 16.0311 18.8236 16.4668 18.8236H18.8412C19.2769 18.8236 19.6548 18.4709 19.6852 18.0359L20.451 7.07483C20.4814 6.63977 20.1528 6.28709 19.7171 6.28709Z" fill="#FBF5FF"/>
<path d="M13.8248 6.28709H11.4505C11.0147 6.28709 10.6369 6.63977 10.6065 7.07483L9.84062 18.0358C9.81022 18.4709 10.1388 18.8236 10.5745 18.8236H12.9489C13.3846 18.8236 13.7625 18.4709 13.7929 18.0359L14.5587 7.07483C14.5891 6.63977 14.2605 6.28709 13.8248 6.28709Z" fill="#FBF5FF"/>
<path fill-rule="evenodd" clip-rule="evenodd" d="M3.16813 18.8227C2.64938 18.8227 2.30615 18.3314 2.47537 17.8311L6.18273 6.87001C6.29922 6.5256 6.62853 6.28612 6.98563 6.28614L7.93114 6.2862C8.36679 6.28622 8.69532 6.63881 8.66501 7.0738L8.27218 12.7105C8.26738 12.7794 8.25355 12.848 8.23104 12.9145L6.43018 18.2389C6.3137 18.5833 5.98439 18.8228 5.6273 18.8228L3.16813 18.8227Z" fill="#FBF5FF"/>
<path d="M32.1533 17.5579L36.2693 17.6139C36.4093 19.5179 37.9213 20.8339 40.3293 20.8339C42.2613 20.8339 43.6893 19.9939 43.6893 18.4539C43.6893 16.8019 42.0933 16.4659 38.8173 15.8219C35.5133 15.2059 32.6013 14.1419 32.6013 10.1659C32.6013 6.69387 35.4853 4.22987 39.9093 4.22987C44.5293 4.22987 47.4693 6.63787 47.5253 10.3899H43.4093C43.2133 8.73787 41.9533 7.58987 39.9093 7.58987C38.1173 7.58987 36.8293 8.34587 36.8293 9.85787C36.8293 11.4539 38.3693 11.7899 41.6173 12.4059C44.9773 13.0219 47.9453 14.0299 47.9173 17.9779C47.8893 21.6459 44.8653 24.1659 40.2733 24.1659C35.2893 24.1659 32.1813 21.5339 32.1533 17.5579ZM63.8493 20.6659H64.2973V23.9979H62.2813C60.2373 23.9979 59.5933 23.0179 59.6213 21.6459C58.6133 23.2419 57.1573 24.1659 54.9173 24.1659C51.8093 24.1659 49.5693 22.6819 49.5693 19.9379C49.5693 16.8859 51.8653 15.1499 56.1773 15.1499H59.0333V14.4499C59.0333 13.1619 58.1093 12.3219 56.4573 12.3219C54.9173 12.3219 53.8813 13.0219 53.7133 14.0859H49.9053C50.1853 11.2859 52.7613 9.43787 56.5693 9.43787C60.6013 9.43787 62.9253 11.2299 62.9253 14.6739V19.7699C62.9253 20.5259 63.2333 20.6659 63.8493 20.6659ZM59.0333 18.0619V17.7819H56.1493C54.4973 17.7819 53.5453 18.4539 53.5453 19.6579C53.5453 20.6659 54.3573 21.3099 55.6733 21.3099C57.7453 21.3099 59.0053 20.0219 59.0333 18.0619ZM65.8246 23.9979V4.39787H69.7726V23.9979H65.8246ZM79.6359 24.1659C74.8479 24.1659 71.9639 21.2819 71.9639 16.8299C71.9639 12.3499 74.9039 9.43787 79.3559 9.43787C83.6679 9.43787 86.5799 12.1259 86.6359 16.3539C86.6359 16.7739 86.6079 17.2499 86.5239 17.6979H76.0799V17.8939C76.1639 19.9379 77.4799 21.1699 79.4679 21.1699C81.0639 21.1699 82.1839 20.4699 82.5199 19.1259H86.4119C85.9639 21.9259 83.4719 24.1659 79.6359 24.1659ZM76.1639 15.1219H82.6599C82.3799 13.3579 81.1759 12.3779 79.3839 12.3779C77.6759 12.3779 76.3879 13.4139 76.1639 15.1219ZM88.012 19.2099H91.764C91.904 20.4699 92.996 21.3379 94.928 21.3379C96.58 21.3379 97.588 20.8059 97.588 19.7979C97.588 18.6219 96.608 18.5379 94.284 18.2299C90.924 17.8379 88.32 17.0819 88.32 14.1139C88.32 11.2579 90.812 9.38187 94.508 9.40987C98.372 9.40987 101.032 11.1179 101.228 14.0579H97.448C97.336 12.9099 96.244 12.2099 94.648 12.2099C93.108 12.2099 92.1 12.7699 92.1 13.6939C92.1 14.7859 93.332 14.8979 95.404 15.1499C98.708 15.4859 101.452 16.2419 101.452 19.4899C101.452 22.3459 98.764 24.1659 94.9 24.1659C90.896 24.1659 88.18 22.2899 88.012 19.2099ZM106.612 23.9979H102.272L109.44 4.39787H114.48L121.592 23.9979H117.084L115.572 19.7139H108.124L106.612 23.9979ZM111.82 8.87787L109.244 16.3259H114.424L111.82 8.87787ZM132.983 11.5939L133.319 9.60587H136.791V23.5779C136.791 27.1339 134.607 29.7659 129.091 29.7659C125.087 29.7659 122.343 27.9459 122.147 24.6139H126.123C126.487 25.9859 127.579 26.7699 129.399 26.7699C131.611 26.7699 132.927 25.6779 132.927 23.4379V21.9259C131.975 23.1299 130.547 23.9139 128.531 23.9139C124.667 23.9419 121.839 21.1139 121.839 16.6619C121.839 12.2659 124.667 9.40987 128.503 9.40987C130.575 9.40987 132.031 10.3339 132.983 11.5939ZM129.399 20.7499C131.555 20.7499 132.899 19.0979 132.899 16.7179C132.899 14.3099 131.555 12.6019 129.399 12.6019C127.243 12.6019 125.871 14.2819 125.871 16.6899C125.871 19.0979 127.243 20.7499 129.399 20.7499ZM146.655 24.1659C141.867 24.1659 138.983 21.2819 138.983 16.8299C138.983 12.3499 141.923 9.43787 146.375 9.43787C150.687 9.43787 153.599 12.1259 153.655 16.3539C153.655 16.7739 153.627 17.2499 153.543 17.6979H143.099V17.8939C143.183 19.9379 144.499 21.1699 146.487 21.1699C148.083 21.1699 149.203 20.4699 149.539 19.1259H153.431C152.983 21.9259 150.491 24.1659 146.655 24.1659ZM143.183 15.1219H149.679C149.399 13.3579 148.195 12.3779 146.403 12.3779C144.695 12.3779 143.407 13.4139 143.183 15.1219ZM164.073 9.43787C167.181 9.43787 169.841 11.0899 169.841 16.0179V23.9979H165.893V16.4099C165.893 13.9739 164.969 12.6859 162.981 12.6859C160.937 12.6859 159.761 14.1419 159.761 16.6339V23.9979H155.813V9.60587H159.257L159.621 11.3979C160.545 10.2779 161.861 9.43787 164.073 9.43787ZM179.05 24.1659C174.486 24.1659 171.714 21.3379 171.714 16.8019C171.714 12.3499 174.626 9.43787 179.19 9.43787C183.11 9.43787 185.546 11.5659 186.106 14.9819H181.99C181.654 13.5539 180.674 12.6579 179.134 12.6579C177.062 12.6579 175.746 14.3659 175.746 16.8019C175.746 19.2659 177.062 20.9459 179.134 20.9459C180.674 20.9459 181.71 20.0219 181.99 18.5659H186.134C185.574 22.0099 182.97 24.1659 179.05 24.1659ZM191.867 24.0819L186.323 9.60587H190.523L194.023 19.8539L197.439 9.60587H201.667L195.283 26.0419C194.387 28.4219 193.659 29.5979 191.419 29.5979H187.583V26.2659H189.767C190.775 26.2659 191.111 26.0139 191.503 25.0339L191.867 24.0819ZM201.006 21.8419C201.006 20.4699 202.014 19.4899 203.386 19.4899C204.73 19.4899 205.766 20.4699 205.766 21.8419C205.766 23.1859 204.73 24.1659 203.386 24.1659C202.014 24.1659 201.006 23.1859 201.006 21.8419ZM221.951 20.6659H222.399V23.9979H220.383C218.339 23.9979 217.695 23.0179 217.723 21.6459C216.715 23.2419 215.259 24.1659 213.019 24.1659C209.911 24.1659 207.671 22.6819 207.671 19.9379C207.671 16.8859 209.967 15.1499 214.279 15.1499H217.135V14.4499C217.135 13.1619 216.211 12.3219 214.559 12.3219C213.019 12.3219 211.983 13.0219 211.815 14.0859H208.007C208.287 11.2859 210.863 9.43787 214.671 9.43787C218.703 9.43787 221.027 11.2299 221.027 14.6739V19.7699C221.027 20.5259 221.335 20.6659 221.951 20.6659ZM217.135 18.0619V17.7819H214.251C212.599 17.7819 211.647 18.4539 211.647 19.6579C211.647 20.6659 212.459 21.3099 213.775 21.3099C215.847 21.3099 217.107 20.0219 217.135 18.0619ZM225.914 8.06587C224.626 8.06587 223.618 7.11387 223.618 5.85387C223.618 4.56587 224.626 3.61387 225.914 3.61387C227.202 3.61387 228.21 4.56587 228.21 5.85387C228.21 7.11387 227.202 8.06587 225.914 8.06587ZM223.926 23.9979V9.60587H227.902V23.9979H223.926Z" fill="#FBF5FF"/>
</svg>
