<svg width="230" height="30" viewBox="0 0 230 30" fill="none" xmlns="http://www.w3.org/2000/svg">
<path d="M23.7488 25.7828C23.6744 27.0037 22.6455 27.9988 21.3996 27.9979C18.9582 27.996 11.4382 27.9903 6.96528 27.9872C5.67857 27.9869 4.47724 27.3853 3.74203 26.3315C3.00847 25.28 2.85055 23.9414 3.26277 22.7211L3.26409 22.7171L8.46538 6.99702C9.26937 4.62032 11.5382 2.96211 14.0336 2.97192C16.9954 2.98068 21.2471 2.99401 22.979 2.99947C24.2559 3.00349 25.2398 4.05685 25.1622 5.32961L23.7488 25.7828Z" fill="#8A31EF"/>
<path d="M23.384 25.4116C23.3096 26.6325 22.2807 27.6276 21.0348 27.6267C18.5934 27.6248 11.0734 27.6191 6.60048 27.616C5.31378 27.6157 4.11244 27.0141 3.37723 25.9603C2.64367 24.9088 2.48575 23.5702 2.89797 22.3499L2.8993 22.3459L8.10059 6.6258C8.90457 4.2491 11.1734 2.59089 13.6688 2.6007C16.6307 2.60946 20.8824 2.6228 22.6142 2.62825C23.8911 2.63228 24.875 3.68563 24.7974 4.95839L23.384 25.4116Z" fill="#8A31EF"/>
<path d="M23.0192 25.0404C22.9448 26.2612 21.9159 27.2564 20.67 27.2554C18.2286 27.2536 10.7086 27.2479 6.23569 27.2448C4.94898 27.2445 3.74765 26.6429 3.01244 25.5891C2.27888 24.5376 2.12096 23.1989 2.53318 21.9786L2.5345 21.9747L7.73579 6.25458C8.53978 3.87789 10.8086 2.21968 13.304 2.22948C16.2659 2.23825 20.5176 2.25158 22.2494 2.25704C23.5263 2.26106 24.5102 3.31442 24.4326 4.58717L23.0192 25.0404Z" fill="#8A31EF"/>
<path d="M22.6544 24.6691C22.58 25.89 21.5511 26.8852 20.3052 26.8842C17.8638 26.8824 10.3438 26.8767 5.8709 26.8736C4.58419 26.8732 3.38285 26.2717 2.64765 25.2178C1.91408 24.1664 1.75616 22.8277 2.16838 21.6074L2.16971 21.6035L7.371 5.88336C8.17498 3.50667 10.4438 1.84846 12.9392 1.85826C15.9011 1.86703 20.1528 1.88036 21.8847 1.88582C23.1615 1.88984 24.1454 2.9432 24.0678 4.21595L22.6544 24.6691Z" fill="#8A31EF"/>
<path d="M22.2897 24.2979C22.2152 25.5188 21.1863 26.5139 19.9404 26.513C17.499 26.5111 9.97901 26.5055 5.5061 26.5023C4.21939 26.502 3.01806 25.9005 2.28285 24.8466C1.54929 23.7951 1.39137 22.4565 1.80359 21.2362L1.80492 21.2323L7.0062 5.51215C7.81019 3.13545 10.079 1.47724 12.5744 1.48705C15.5363 1.49581 19.788 1.50914 21.5199 1.5146C22.7967 1.51862 23.7806 2.57198 23.703 3.84474L22.2897 24.2979Z" fill="#8A31EF"/>
<path d="M21.9249 23.9267C21.8504 25.1476 20.8215 26.1427 19.5756 26.1418C17.1342 26.1399 9.61421 26.1342 5.14131 26.1311C3.8546 26.1308 2.65326 25.5292 1.91806 24.4754C1.1845 23.4239 1.02657 22.0853 1.43879 20.865L1.44012 20.8611L6.64141 5.14093C7.44539 2.76423 9.71424 1.10602 12.2096 1.11583C15.1715 1.12459 19.4232 1.13793 21.1551 1.14338C22.432 1.14741 23.4158 2.20076 23.3382 3.47352L21.9249 23.9267Z" fill="#8A31EF"/>
<path d="M21.5601 23.5555C21.4856 24.7764 20.4567 25.7715 19.2108 25.7706C16.7694 25.7687 9.24942 25.763 4.77651 25.7599C3.4898 25.7596 2.28847 25.158 1.55326 24.1042C0.819701 23.0527 0.661779 21.7141 1.074 20.4938L1.07533 20.4898L6.27661 4.76971C7.0806 2.39302 9.34945 0.734806 11.8448 0.744611C14.8067 0.753375 19.0584 0.766709 20.7903 0.772165C22.0672 0.776188 23.051 1.82954 22.9734 3.1023L21.5601 23.5555Z" fill="#8A31EF"/>
<path d="M21.1953 23.1843C21.1208 24.4052 20.0919 25.4003 18.846 25.3993C16.4046 25.3975 8.88462 25.3918 4.41172 25.3887C3.12501 25.3884 1.92367 24.7868 1.18847 23.733C0.454907 22.6815 0.296984 21.3429 0.709204 20.1226L0.710532 20.1186L5.91182 4.39849C6.7158 2.0218 8.98465 0.363589 11.48 0.373393C14.4419 0.382157 18.6936 0.395491 20.4255 0.400948C21.7024 0.404971 22.6862 1.45833 22.6086 2.73108L21.1953 23.1843Z" fill="#8A31EF"/>
<path d="M20.8305 22.813C20.756 24.0339 19.7271 25.0291 18.4812 25.0281C16.0398 25.0263 8.51983 25.0206 4.04692 25.0175C2.76021 25.0172 1.55888 24.4156 0.823672 23.3617C0.0901119 22.3103 -0.0678104 20.9716 0.344409 19.7513L0.345737 19.7474L5.54702 4.02728C6.35101 1.65058 8.61986 -0.00762894 11.1152 0.00217566C14.0771 0.0109398 18.3288 0.0242733 20.0607 0.02973C21.3376 0.0337532 22.3214 1.08711 22.2438 2.35987L20.8305 22.813Z" fill="#8A31EF"/>
<path d="M20.8305 22.813C20.756 24.0339 19.7271 25.0291 18.4812 25.0281C16.0398 25.0263 8.51983 25.0206 4.04692 25.0175C2.76021 25.0172 1.55888 24.4156 0.823672 23.3617C0.0901119 22.3103 -0.0678104 20.9716 0.344409 19.7513L0.345737 19.7474L5.54702 4.02728C6.35101 1.65058 8.61986 -0.00762894 11.1152 0.00217566C14.0771 0.0109398 18.3288 0.0242733 20.0607 0.02973C21.3376 0.0337532 22.3214 1.08711 22.2438 2.35987L20.8305 22.813Z" fill="#8A31EF"/>
<path fill-rule="evenodd" clip-rule="evenodd" d="M6.95333 4.48182C7.55256 2.70896 9.24861 1.47953 11.0845 1.48703C14.0463 1.49579 18.2985 1.50913 20.0305 1.51459C20.4624 1.51595 20.788 1.86398 20.7617 2.29532L20.6545 4.05438C20.6278 4.49216 20.2485 4.84913 19.81 4.84913H7.20981C7.01763 4.84913 6.89049 4.66714 6.95333 4.48182Z" fill="#FBF5FF"/>
<path fill-rule="evenodd" clip-rule="evenodd" d="M1.75126 20.2043C1.76096 20.1758 1.78813 20.1556 1.81765 20.1557L18.7237 20.2093C19.1556 20.2107 19.4818 20.5587 19.4556 20.99L19.3483 22.7485C19.3216 23.1865 18.9474 23.5436 18.5087 23.5433C16.0673 23.5414 8.54727 23.5357 4.07431 23.5326C3.25156 23.5326 2.50224 23.1503 2.04725 22.4981C1.59226 21.8459 1.48284 20.9989 1.75126 20.2043Z" fill="#FBF5FF"/>
<path d="M19.7171 6.28922H17.3427C16.907 6.28922 16.5292 6.6419 16.4988 7.07696L15.7329 18.038C15.7025 18.473 16.0311 18.8257 16.4668 18.8257H18.8412C19.2769 18.8257 19.6548 18.473 19.6852 18.038L20.451 7.07696C20.4814 6.6419 20.1528 6.28922 19.7171 6.28922Z" fill="#FBF5FF"/>
<path d="M13.8248 6.28922H11.4505C11.0147 6.28922 10.6369 6.6419 10.6065 7.07696L9.84062 18.038C9.81022 18.473 10.1388 18.8257 10.5745 18.8257H12.9489C13.3846 18.8257 13.7625 18.473 13.7929 18.038L14.5587 7.07696C14.5891 6.6419 14.2605 6.28922 13.8248 6.28922Z" fill="#FBF5FF"/>
<path fill-rule="evenodd" clip-rule="evenodd" d="M3.16813 18.8248C2.64938 18.8248 2.30615 18.3335 2.47537 17.8332L6.18273 6.87214C6.29922 6.52773 6.62853 6.28826 6.98563 6.28828L7.93114 6.28833C8.36679 6.28835 8.69532 6.64094 8.66501 7.07593L8.27218 12.7127C8.26738 12.7815 8.25355 12.8501 8.23104 12.9167L6.43018 18.241C6.3137 18.5854 5.98439 18.8249 5.6273 18.8249L3.16813 18.8248Z" fill="#FBF5FF"/>
<path d="M32.1533 17.56L36.2693 17.616C36.4093 19.52 37.9213 20.836 40.3293 20.836C42.2613 20.836 43.6893 19.996 43.6893 18.456C43.6893 16.804 42.0933 16.468 38.8173 15.824C35.5133 15.208 32.6013 14.144 32.6013 10.168C32.6013 6.696 35.4853 4.232 39.9093 4.232C44.5293 4.232 47.4693 6.64 47.5253 10.392H43.4093C43.2133 8.74 41.9533 7.592 39.9093 7.592C38.1173 7.592 36.8293 8.348 36.8293 9.86C36.8293 11.456 38.3693 11.792 41.6173 12.408C44.9773 13.024 47.9453 14.032 47.9173 17.98C47.8893 21.648 44.8653 24.168 40.2733 24.168C35.2893 24.168 32.1813 21.536 32.1533 17.56ZM63.8493 20.668H64.2973V24H62.2813C60.2373 24 59.5933 23.02 59.6213 21.648C58.6133 23.244 57.1573 24.168 54.9173 24.168C51.8093 24.168 49.5693 22.684 49.5693 19.94C49.5693 16.888 51.8653 15.152 56.1773 15.152H59.0333V14.452C59.0333 13.164 58.1093 12.324 56.4573 12.324C54.9173 12.324 53.8813 13.024 53.7133 14.088H49.9053C50.1853 11.288 52.7613 9.44 56.5693 9.44C60.6013 9.44 62.9253 11.232 62.9253 14.676V19.772C62.9253 20.528 63.2333 20.668 63.8493 20.668ZM59.0333 18.064V17.784H56.1493C54.4973 17.784 53.5453 18.456 53.5453 19.66C53.5453 20.668 54.3573 21.312 55.6733 21.312C57.7453 21.312 59.0053 20.024 59.0333 18.064ZM65.8246 24V4.4H69.7726V24H65.8246ZM79.6359 24.168C74.8479 24.168 71.9639 21.284 71.9639 16.832C71.9639 12.352 74.9039 9.44 79.3559 9.44C83.6679 9.44 86.5799 12.128 86.6359 16.356C86.6359 16.776 86.6079 17.252 86.5239 17.7H76.0799V17.896C76.1639 19.94 77.4799 21.172 79.4679 21.172C81.0639 21.172 82.1839 20.472 82.5199 19.128H86.4119C85.9639 21.928 83.4719 24.168 79.6359 24.168ZM76.1639 15.124H82.6599C82.3799 13.36 81.1759 12.38 79.3839 12.38C77.6759 12.38 76.3879 13.416 76.1639 15.124ZM88.012 19.212H91.764C91.904 20.472 92.996 21.34 94.928 21.34C96.58 21.34 97.588 20.808 97.588 19.8C97.588 18.624 96.608 18.54 94.284 18.232C90.924 17.84 88.32 17.084 88.32 14.116C88.32 11.26 90.812 9.384 94.508 9.412C98.372 9.412 101.032 11.12 101.228 14.06H97.448C97.336 12.912 96.244 12.212 94.648 12.212C93.108 12.212 92.1 12.772 92.1 13.696C92.1 14.788 93.332 14.9 95.404 15.152C98.708 15.488 101.452 16.244 101.452 19.492C101.452 22.348 98.764 24.168 94.9 24.168C90.896 24.168 88.18 22.292 88.012 19.212ZM106.612 24H102.272L109.44 4.4H114.48L121.592 24H117.084L115.572 19.716H108.124L106.612 24ZM111.82 8.88L109.244 16.328H114.424L111.82 8.88ZM132.983 11.596L133.319 9.608H136.791V23.58C136.791 27.136 134.607 29.768 129.091 29.768C125.087 29.768 122.343 27.948 122.147 24.616H126.123C126.487 25.988 127.579 26.772 129.399 26.772C131.611 26.772 132.927 25.68 132.927 23.44V21.928C131.975 23.132 130.547 23.916 128.531 23.916C124.667 23.944 121.839 21.116 121.839 16.664C121.839 12.268 124.667 9.412 128.503 9.412C130.575 9.412 132.031 10.336 132.983 11.596ZM129.399 20.752C131.555 20.752 132.899 19.1 132.899 16.72C132.899 14.312 131.555 12.604 129.399 12.604C127.243 12.604 125.871 14.284 125.871 16.692C125.871 19.1 127.243 20.752 129.399 20.752ZM146.655 24.168C141.867 24.168 138.983 21.284 138.983 16.832C138.983 12.352 141.923 9.44 146.375 9.44C150.687 9.44 153.599 12.128 153.655 16.356C153.655 16.776 153.627 17.252 153.543 17.7H143.099V17.896C143.183 19.94 144.499 21.172 146.487 21.172C148.083 21.172 149.203 20.472 149.539 19.128H153.431C152.983 21.928 150.491 24.168 146.655 24.168ZM143.183 15.124H149.679C149.399 13.36 148.195 12.38 146.403 12.38C144.695 12.38 143.407 13.416 143.183 15.124ZM164.073 9.44C167.181 9.44 169.841 11.092 169.841 16.02V24H165.893V16.412C165.893 13.976 164.969 12.688 162.981 12.688C160.937 12.688 159.761 14.144 159.761 16.636V24H155.813V9.608H159.257L159.621 11.4C160.545 10.28 161.861 9.44 164.073 9.44ZM179.05 24.168C174.486 24.168 171.714 21.34 171.714 16.804C171.714 12.352 174.626 9.44 179.19 9.44C183.11 9.44 185.546 11.568 186.106 14.984H181.99C181.654 13.556 180.674 12.66 179.134 12.66C177.062 12.66 175.746 14.368 175.746 16.804C175.746 19.268 177.062 20.948 179.134 20.948C180.674 20.948 181.71 20.024 181.99 18.568H186.134C185.574 22.012 182.97 24.168 179.05 24.168ZM191.867 24.084L186.323 9.608H190.523L194.023 19.856L197.439 9.608H201.667L195.283 26.044C194.387 28.424 193.659 29.6 191.419 29.6H187.583V26.268H189.767C190.775 26.268 191.111 26.016 191.503 25.036L191.867 24.084ZM201.006 21.844C201.006 20.472 202.014 19.492 203.386 19.492C204.73 19.492 205.766 20.472 205.766 21.844C205.766 23.188 204.73 24.168 203.386 24.168C202.014 24.168 201.006 23.188 201.006 21.844ZM221.951 20.668H222.399V24H220.383C218.339 24 217.695 23.02 217.723 21.648C216.715 23.244 215.259 24.168 213.019 24.168C209.911 24.168 207.671 22.684 207.671 19.94C207.671 16.888 209.967 15.152 214.279 15.152H217.135V14.452C217.135 13.164 216.211 12.324 214.559 12.324C213.019 12.324 211.983 13.024 211.815 14.088H208.007C208.287 11.288 210.863 9.44 214.671 9.44C218.703 9.44 221.027 11.232 221.027 14.676V19.772C221.027 20.528 221.335 20.668 221.951 20.668ZM217.135 18.064V17.784H214.251C212.599 17.784 211.647 18.456 211.647 19.66C211.647 20.668 212.459 21.312 213.775 21.312C215.847 21.312 217.107 20.024 217.135 18.064ZM225.914 8.068C224.626 8.068 223.618 7.116 223.618 5.856C223.618 4.568 224.626 3.616 225.914 3.616C227.202 3.616 228.21 4.568 228.21 5.856C228.21 7.116 227.202 8.068 225.914 8.068ZM223.926 24V9.608H227.902V24H223.926Z" fill="#FBF5FF"/>
</svg>
